<svg width="208" height="147" viewBox="0 0 208 147" fill="none" xmlns="http://www.w3.org/2000/svg">
<circle cx="20" cy="20" r="19.6429" stroke="#E6E6E6" stroke-width="0.714286"/>
<path d="M24.25 30.5C25.2165 30.5 26 29.7165 26 28.75C26 27.7835 25.2165 27 24.25 27C23.2835 27 22.5 27.7835 22.5 28.75C22.5 29.7165 23.2835 30.5 24.25 30.5Z" fill="#34CAA5"/>
<path d="M16.25 30.5C17.2165 30.5 18 29.7165 18 28.75C18 27.7835 17.2165 27 16.25 27C15.2835 27 14.5 27.7835 14.5 28.75C14.5 29.7165 15.2835 30.5 16.25 30.5Z" fill="#34CAA5"/>
<path opacity="0.4" d="M12.84 11.94L12.64 14.39C12.6 14.86 12.97 15.25 13.44 15.25H28.75C29.17 15.25 29.52 14.93 29.55 14.51C29.68 12.74 28.33 11.3 26.56 11.3H14.29C14.19 10.86 13.99 10.44 13.68 10.09C13.19 9.56 12.49 9.25 11.77 9.25H10C9.59 9.25 9.25 9.59 9.25 10C9.25 10.41 9.59 10.75 10 10.75H11.74C12.05 10.75 12.34 10.88 12.55 11.1C12.76 11.33 12.86 11.63 12.84 11.94Z" fill="#34CAA5"/>
<path d="M28.5101 16.75H13.1701C12.7501 16.75 12.4101 17.07 12.3701 17.48L12.0101 21.83C11.8701 23.53 13.2101 25 14.9201 25H26.0401C27.5401 25 28.8601 23.77 28.9701 22.27L29.3001 17.6C29.3401 17.14 28.9801 16.75 28.5101 16.75Z" fill="#34CAA5"/>
<path d="M105.006 11.4667H103V36L207 36V14.4536L203.991 21.9203L202.796 24.9069H201.394L198.592 21.9203L196.63 24.907L190.744 24.9072L187.661 21.9204L185.979 17.4396L183.532 19.6803L181.325 21.9203L180.636 25.3333L179.235 24.9069H177.514L174.305 14.4536L173.302 17.4403L171.697 14.4536L170.494 19.6803L167.284 10.7203L165.479 14.4536H162.069L158.459 6.98696L156.252 10.7203L153.347 8.48L149.806 14.4533L147.53 4L145.882 14.4533L134.893 18.9333L133.489 15.9466H132.085L128.875 11.4667H125.666L124.462 15.9466L119.648 6.98666L117.643 18.9333L116.64 14.4533H114.433L112.427 4L110.422 12.96L109.419 8.48H106.811L105.006 11.4667Z" fill="url(#paint0_linear_2133_4708)" fill-opacity="0.16"/>
<path d="M103 11.4667H105.006L106.811 8.48004H109.419L110.422 12.96L112.427 4.00004L114.433 14.4534H116.64L117.643 18.9333L119.648 6.9867L124.462 15.9467L125.666 11.4667H128.875L132.085 15.9467H133.489L134.893 18.9333L145.882 14.4534L147.53 4.00004L149.806 14.4534L153.347 8.48004L156.252 10.7203L158.459 6.987L162.069 14.4536H165.479L167.284 10.7203L170.494 19.6803L171.697 14.4536L173.302 17.4403L174.305 14.4536L177.514 24.907H179.235L180.636 25.3334L181.325 21.9203L183.532 19.6803L185.979 17.4396L187.661 21.9204L190.744 24.9073L196.63 24.907L198.592 21.9203L201.394 24.907H202.796L203.991 21.9203L207 14.4536" stroke="#ED544E" stroke-linecap="round"/>
<path d="M0.198 70L5.004 56.59H7.092L11.898 70H10.008L8.91 66.85H3.186L2.088 70H0.198ZM3.744 65.23H8.352L5.796 57.868H6.3L3.744 65.23ZM15.5448 70L11.7468 60.298H13.6188L16.6608 68.506H16.0128L19.0728 60.298H20.9448L17.1288 70H15.5448ZM26.7307 70.216C25.7947 70.216 24.9607 69.994 24.2287 69.55C23.4967 69.106 22.9207 68.5 22.5007 67.732C22.0807 66.952 21.8707 66.082 21.8707 65.122C21.8707 64.15 22.0747 63.286 22.4827 62.53C22.9027 61.774 23.4667 61.18 24.1747 60.748C24.8947 60.304 25.6987 60.082 26.5867 60.082C27.3067 60.082 27.9427 60.214 28.4947 60.478C29.0587 60.73 29.5327 61.078 29.9167 61.522C30.3127 61.954 30.6127 62.452 30.8167 63.016C31.0327 63.568 31.1407 64.144 31.1407 64.744C31.1407 64.876 31.1287 65.026 31.1047 65.194C31.0927 65.35 31.0747 65.5 31.0507 65.644H23.0947V64.204H30.0787L29.2867 64.852C29.3947 64.228 29.3347 63.67 29.1067 63.178C28.8787 62.686 28.5427 62.296 28.0987 62.008C27.6547 61.72 27.1507 61.576 26.5867 61.576C26.0227 61.576 25.5067 61.72 25.0387 62.008C24.5707 62.296 24.2047 62.71 23.9407 63.25C23.6887 63.778 23.5867 64.408 23.6347 65.14C23.5867 65.848 23.6947 66.472 23.9587 67.012C24.2347 67.54 24.6187 67.954 25.1107 68.254C25.6147 68.542 26.1607 68.686 26.7487 68.686C27.3967 68.686 27.9427 68.536 28.3867 68.236C28.8307 67.936 29.1907 67.552 29.4667 67.084L30.8707 67.804C30.6787 68.248 30.3787 68.656 29.9707 69.028C29.5747 69.388 29.1007 69.676 28.5487 69.892C28.0087 70.108 27.4027 70.216 26.7307 70.216ZM33.3233 70V60.298H34.9613V62.08L34.7813 61.828C35.0093 61.276 35.3573 60.868 35.8253 60.604C36.2933 60.328 36.8633 60.19 37.5353 60.19H38.1293V61.774H37.2833C36.5993 61.774 36.0473 61.99 35.6273 62.422C35.2073 62.842 34.9973 63.442 34.9973 64.222V70H33.3233ZM42.4603 70.216C41.8243 70.216 41.2603 70.102 40.7683 69.874C40.2883 69.634 39.9103 69.31 39.6343 68.902C39.3583 68.482 39.2203 68.002 39.2203 67.462C39.2203 66.946 39.3283 66.484 39.5443 66.076C39.7723 65.656 40.1203 65.302 40.5883 65.014C41.0683 64.726 41.6683 64.522 42.3883 64.402L45.9883 63.808V65.212L42.7663 65.752C42.1423 65.86 41.6863 66.058 41.3983 66.346C41.1223 66.634 40.9843 66.988 40.9843 67.408C40.9843 67.804 41.1403 68.134 41.4523 68.398C41.7763 68.662 42.1783 68.794 42.6583 68.794C43.2703 68.794 43.7983 68.668 44.2423 68.416C44.6983 68.152 45.0523 67.798 45.3043 67.354C45.5683 66.91 45.7003 66.418 45.7003 65.878V63.412C45.7003 62.884 45.5023 62.458 45.1063 62.134C44.7223 61.798 44.2123 61.63 43.5763 61.63C43.0243 61.63 42.5323 61.774 42.1003 62.062C41.6803 62.338 41.3683 62.71 41.1643 63.178L39.7063 62.422C39.8863 61.978 40.1743 61.582 40.5703 61.234C40.9663 60.874 41.4283 60.592 41.9563 60.388C42.4843 60.184 43.0363 60.082 43.6123 60.082C44.3563 60.082 45.0103 60.226 45.5743 60.514C46.1383 60.79 46.5763 61.18 46.8883 61.684C47.2123 62.176 47.3743 62.752 47.3743 63.412V70H45.7363V68.164L46.0423 68.272C45.8383 68.656 45.5623 68.992 45.2143 69.28C44.8663 69.568 44.4583 69.796 43.9903 69.964C43.5223 70.132 43.0123 70.216 42.4603 70.216ZM54.5958 73.96C53.9118 73.96 53.2758 73.852 52.6878 73.636C52.1118 73.42 51.6138 73.12 51.1938 72.736C50.7858 72.364 50.4738 71.926 50.2578 71.422L51.8238 70.702C51.9918 71.158 52.3098 71.542 52.7778 71.854C53.2578 72.178 53.8578 72.34 54.5778 72.34C55.1298 72.34 55.6278 72.232 56.0718 72.016C56.5278 71.812 56.8878 71.5 57.1518 71.08C57.4158 70.672 57.5478 70.174 57.5478 69.586V67.408L57.8538 67.732C57.5178 68.392 57.0318 68.896 56.3958 69.244C55.7718 69.592 55.0818 69.766 54.3258 69.766C53.4138 69.766 52.5978 69.556 51.8778 69.136C51.1578 68.704 50.5938 68.122 50.1858 67.39C49.7778 66.646 49.5738 65.824 49.5738 64.924C49.5738 64.012 49.7778 63.19 50.1858 62.458C50.5938 61.726 51.1518 61.15 51.8598 60.73C52.5798 60.298 53.3958 60.082 54.3078 60.082C55.0638 60.082 55.7478 60.256 56.3598 60.604C56.9838 60.94 57.4818 61.408 57.8538 62.008L57.6018 62.458V60.298H59.2398V69.586C59.2398 70.426 59.0418 71.176 58.6458 71.836C58.2498 72.496 57.6978 73.012 56.9898 73.384C56.2938 73.768 55.4958 73.96 54.5958 73.96ZM54.4698 68.146C55.0458 68.146 55.5618 68.002 56.0178 67.714C56.4858 67.426 56.8578 67.042 57.1338 66.562C57.4098 66.07 57.5478 65.524 57.5478 64.924C57.5478 64.336 57.4098 63.796 57.1338 63.304C56.8578 62.812 56.4858 62.422 56.0178 62.134C55.5618 61.846 55.0458 61.702 54.4698 61.702C53.8818 61.702 53.3478 61.846 52.8678 62.134C52.3878 62.422 52.0098 62.812 51.7338 63.304C51.4698 63.784 51.3378 64.324 51.3378 64.924C51.3378 65.524 51.4698 66.07 51.7338 66.562C52.0098 67.042 52.3818 67.426 52.8498 67.714C53.3298 68.002 53.8698 68.146 54.4698 68.146ZM66.2991 70.216C65.3631 70.216 64.5291 69.994 63.7971 69.55C63.0651 69.106 62.4891 68.5 62.0691 67.732C61.6491 66.952 61.4391 66.082 61.4391 65.122C61.4391 64.15 61.6431 63.286 62.0511 62.53C62.4711 61.774 63.0351 61.18 63.7431 60.748C64.4631 60.304 65.2671 60.082 66.1551 60.082C66.8751 60.082 67.5111 60.214 68.0631 60.478C68.6271 60.73 69.1011 61.078 69.4851 61.522C69.8811 61.954 70.1811 62.452 70.3851 63.016C70.6011 63.568 70.7091 64.144 70.7091 64.744C70.7091 64.876 70.6971 65.026 70.6731 65.194C70.6611 65.35 70.6431 65.5 70.6191 65.644H62.6631V64.204H69.6471L68.8551 64.852C68.9631 64.228 68.9031 63.67 68.6751 63.178C68.4471 62.686 68.1111 62.296 67.6671 62.008C67.2231 61.72 66.7191 61.576 66.1551 61.576C65.5911 61.576 65.0751 61.72 64.6071 62.008C64.1391 62.296 63.7731 62.71 63.5091 63.25C63.2571 63.778 63.1551 64.408 63.2031 65.14C63.1551 65.848 63.2631 66.472 63.5271 67.012C63.8031 67.54 64.1871 67.954 64.6791 68.254C65.1831 68.542 65.7291 68.686 66.3171 68.686C66.9651 68.686 67.5111 68.536 67.9551 68.236C68.3991 67.936 68.7591 67.552 69.0351 67.084L70.4391 67.804C70.2471 68.248 69.9471 68.656 69.5391 69.028C69.1431 69.388 68.6691 69.676 68.1171 69.892C67.5771 70.108 66.9711 70.216 66.2991 70.216ZM80.809 70.216C79.957 70.216 79.177 70.06 78.469 69.748C77.761 69.424 77.161 68.986 76.669 68.434C76.177 67.882 75.823 67.264 75.607 66.58L77.137 65.95C77.461 66.814 77.941 67.48 78.577 67.948C79.225 68.404 79.981 68.632 80.845 68.632C81.373 68.632 81.835 68.548 82.231 68.38C82.627 68.212 82.933 67.978 83.149 67.678C83.377 67.366 83.491 67.006 83.491 66.598C83.491 66.034 83.329 65.59 83.005 65.266C82.693 64.93 82.231 64.678 81.619 64.51L79.153 63.754C78.181 63.454 77.437 62.98 76.921 62.332C76.405 61.684 76.147 60.94 76.147 60.1C76.147 59.368 76.321 58.726 76.669 58.174C77.029 57.61 77.521 57.172 78.145 56.86C78.781 56.536 79.501 56.374 80.305 56.374C81.109 56.374 81.835 56.518 82.483 56.806C83.143 57.094 83.701 57.484 84.157 57.976C84.613 58.456 84.949 59.008 85.165 59.632L83.653 60.262C83.365 59.506 82.933 58.936 82.357 58.552C81.781 58.156 81.103 57.958 80.323 57.958C79.843 57.958 79.417 58.042 79.045 58.21C78.685 58.366 78.403 58.6 78.199 58.912C78.007 59.212 77.911 59.572 77.911 59.992C77.911 60.484 78.067 60.922 78.379 61.306C78.691 61.69 79.165 61.984 79.801 62.188L82.051 62.854C83.107 63.178 83.905 63.64 84.445 64.24C84.985 64.84 85.255 65.584 85.255 66.472C85.255 67.204 85.063 67.852 84.679 68.416C84.307 68.98 83.785 69.424 83.113 69.748C82.453 70.06 81.685 70.216 80.809 70.216ZM90.2201 70.216C89.5841 70.216 89.0201 70.102 88.5281 69.874C88.0481 69.634 87.6701 69.31 87.3941 68.902C87.1181 68.482 86.9801 68.002 86.9801 67.462C86.9801 66.946 87.0881 66.484 87.3041 66.076C87.5321 65.656 87.8801 65.302 88.3481 65.014C88.8281 64.726 89.4281 64.522 90.1481 64.402L93.7481 63.808V65.212L90.5261 65.752C89.9021 65.86 89.4461 66.058 89.1581 66.346C88.8821 66.634 88.7441 66.988 88.7441 67.408C88.7441 67.804 88.9001 68.134 89.2121 68.398C89.5361 68.662 89.9381 68.794 90.4181 68.794C91.0301 68.794 91.5581 68.668 92.0021 68.416C92.4581 68.152 92.8121 67.798 93.0641 67.354C93.3281 66.91 93.4601 66.418 93.4601 65.878V63.412C93.4601 62.884 93.2621 62.458 92.8661 62.134C92.4821 61.798 91.9721 61.63 91.3361 61.63C90.7841 61.63 90.2921 61.774 89.8601 62.062C89.4401 62.338 89.1281 62.71 88.9241 63.178L87.4661 62.422C87.6461 61.978 87.9341 61.582 88.3301 61.234C88.7261 60.874 89.1881 60.592 89.7161 60.388C90.2441 60.184 90.7961 60.082 91.3721 60.082C92.1161 60.082 92.7701 60.226 93.3341 60.514C93.8981 60.79 94.3361 61.18 94.6481 61.684C94.9721 62.176 95.1341 62.752 95.1341 63.412V70H93.4961V68.164L93.8021 68.272C93.5981 68.656 93.3221 68.992 92.9741 69.28C92.6261 69.568 92.2181 69.796 91.7501 69.964C91.2821 70.132 90.7721 70.216 90.2201 70.216ZM97.7296 70V56.374H99.4036V70H97.7296ZM106.465 70.216C105.529 70.216 104.695 69.994 103.963 69.55C103.231 69.106 102.655 68.5 102.235 67.732C101.815 66.952 101.605 66.082 101.605 65.122C101.605 64.15 101.809 63.286 102.217 62.53C102.637 61.774 103.201 61.18 103.909 60.748C104.629 60.304 105.433 60.082 106.321 60.082C107.041 60.082 107.677 60.214 108.229 60.478C108.793 60.73 109.267 61.078 109.651 61.522C110.047 61.954 110.347 62.452 110.551 63.016C110.767 63.568 110.875 64.144 110.875 64.744C110.875 64.876 110.863 65.026 110.839 65.194C110.827 65.35 110.809 65.5 110.785 65.644H102.829V64.204H109.813L109.021 64.852C109.129 64.228 109.069 63.67 108.841 63.178C108.613 62.686 108.277 62.296 107.833 62.008C107.389 61.72 106.885 61.576 106.321 61.576C105.757 61.576 105.241 61.72 104.773 62.008C104.305 62.296 103.939 62.71 103.675 63.25C103.423 63.778 103.321 64.408 103.369 65.14C103.321 65.848 103.429 66.472 103.693 67.012C103.969 67.54 104.353 67.954 104.845 68.254C105.349 68.542 105.895 68.686 106.483 68.686C107.131 68.686 107.677 68.536 108.121 68.236C108.565 67.936 108.925 67.552 109.201 67.084L110.605 67.804C110.413 68.248 110.113 68.656 109.705 69.028C109.309 69.388 108.835 69.676 108.283 69.892C107.743 70.108 107.137 70.216 106.465 70.216ZM116.532 70.216C115.56 70.216 114.714 69.976 113.994 69.496C113.274 69.016 112.764 68.368 112.464 67.552L113.796 66.904C114.072 67.48 114.45 67.936 114.93 68.272C115.41 68.608 115.944 68.776 116.532 68.776C117.06 68.776 117.498 68.65 117.846 68.398C118.194 68.146 118.368 67.816 118.368 67.408C118.368 67.12 118.284 66.892 118.116 66.724C117.96 66.544 117.768 66.406 117.54 66.31C117.312 66.202 117.102 66.124 116.91 66.076L115.452 65.662C114.576 65.41 113.934 65.05 113.526 64.582C113.13 64.114 112.932 63.568 112.932 62.944C112.932 62.368 113.076 61.87 113.364 61.45C113.664 61.018 114.066 60.682 114.57 60.442C115.086 60.202 115.662 60.082 116.298 60.082C117.15 60.082 117.912 60.298 118.584 60.73C119.268 61.162 119.754 61.768 120.042 62.548L118.674 63.178C118.458 62.674 118.134 62.278 117.702 61.99C117.27 61.69 116.784 61.54 116.244 61.54C115.752 61.54 115.362 61.666 115.074 61.918C114.786 62.158 114.642 62.464 114.642 62.836C114.642 63.112 114.714 63.34 114.858 63.52C115.002 63.688 115.176 63.82 115.38 63.916C115.584 64 115.782 64.072 115.974 64.132L117.558 64.6C118.35 64.828 118.962 65.182 119.394 65.662C119.838 66.142 120.06 66.718 120.06 67.39C120.06 67.93 119.91 68.416 119.61 68.848C119.31 69.28 118.896 69.616 118.368 69.856C117.84 70.096 117.228 70.216 116.532 70.216Z" fill="#898989"/>
<path d="M4.224 107V91.52H0.792V89.12H7.032V107H4.224ZM16.5744 107.288C15.6304 107.288 14.7424 107.12 13.9104 106.784C13.0784 106.432 12.3584 105.944 11.7504 105.32C11.1424 104.696 10.7104 103.944 10.4544 103.064L12.8304 102.152C13.1344 103 13.6304 103.648 14.3184 104.096C15.0064 104.544 15.7584 104.768 16.5744 104.768C17.2464 104.768 17.8384 104.616 18.3504 104.312C18.8624 104.008 19.2624 103.592 19.5504 103.064C19.8544 102.536 20.0064 101.936 20.0064 101.264C20.0064 100.576 19.8544 99.976 19.5504 99.464C19.2624 98.936 18.8624 98.528 18.3504 98.24C17.8384 97.936 17.2464 97.784 16.5744 97.784C15.9024 97.784 15.2864 97.936 14.7264 98.24C14.1664 98.544 13.7584 98.952 13.5024 99.464L11.2224 98.96L12.6144 89.12H22.1424V91.52H13.7184L14.7984 90.344L13.7664 97.88L12.8784 97.28C13.3584 96.608 13.9424 96.12 14.6304 95.816C15.3184 95.512 16.1024 95.36 16.9824 95.36C18.1504 95.36 19.1664 95.624 20.0304 96.152C20.9104 96.664 21.5904 97.368 22.0704 98.264C22.5664 99.144 22.8144 100.144 22.8144 101.264C22.8144 102.4 22.5424 103.424 21.9984 104.336C21.4544 105.248 20.7104 105.968 19.7664 106.496C18.8384 107.024 17.7744 107.288 16.5744 107.288ZM31.3881 107.288C30.2201 107.288 29.1801 107.032 28.2681 106.52C27.3561 106.008 26.6361 105.304 26.1081 104.408C25.5961 103.512 25.3401 102.496 25.3401 101.36C25.3401 100.768 25.4041 100.176 25.5321 99.584C25.6601 98.992 25.8841 98.376 26.2041 97.736C26.5401 97.096 26.9881 96.408 27.5481 95.672L32.5401 89.12H35.9241L29.8041 97.04L29.3241 96.728C29.5481 96.472 29.7881 96.272 30.0441 96.128C30.3161 95.984 30.5961 95.88 30.8841 95.816C31.1881 95.752 31.5081 95.72 31.8441 95.72C32.9161 95.72 33.8761 95.968 34.7241 96.464C35.5721 96.96 36.2361 97.632 36.7161 98.48C37.2121 99.328 37.4601 100.304 37.4601 101.408C37.4601 102.528 37.1961 103.536 36.6681 104.432C36.1401 105.312 35.4201 106.008 34.5081 106.52C33.6121 107.032 32.5721 107.288 31.3881 107.288ZM31.3881 104.768C32.0121 104.768 32.5641 104.624 33.0441 104.336C33.5241 104.048 33.9081 103.656 34.1961 103.16C34.4841 102.648 34.6281 102.072 34.6281 101.432C34.6281 100.776 34.4841 100.2 34.1961 99.704C33.9241 99.208 33.5401 98.824 33.0441 98.552C32.5641 98.264 32.0121 98.12 31.3881 98.12C30.7801 98.12 30.2281 98.264 29.7321 98.552C29.2521 98.824 28.8681 99.208 28.5801 99.704C28.2921 100.2 28.1481 100.776 28.1481 101.432C28.1481 102.072 28.2921 102.648 28.5801 103.16C28.8681 103.656 29.2521 104.048 29.7321 104.336C30.2281 104.624 30.7801 104.768 31.3881 104.768ZM40.3781 107L48.0101 91.52H39.4181V89.12H50.9621V91.52L43.4501 107H40.3781Z" fill="#3A3F51"/>
<rect y="123" width="70" height="24" rx="12" fill="#ED544E" fill-opacity="0.12"/>
<path d="M9.5 132.5L12.5 135.5L14.5 133.5L18.5 137.5" stroke="#ED544E" stroke-linecap="round" stroke-linejoin="round"/>
<path d="M15 137.5H18.5V134" stroke="#ED544E" stroke-linecap="round" stroke-linejoin="round"/>
<path d="M24.648 140V139.184L27.12 136.508C27.608 135.988 27.996 135.56 28.284 135.224C28.58 134.888 28.796 134.588 28.932 134.324C29.068 134.06 29.136 133.78 29.136 133.484C29.136 132.996 28.992 132.62 28.704 132.356C28.416 132.092 28.036 131.96 27.564 131.96C27.084 131.96 26.676 132.1 26.34 132.38C26.004 132.652 25.772 133.04 25.644 133.544L24.576 133.268C24.68 132.788 24.872 132.372 25.152 132.02C25.432 131.668 25.78 131.396 26.196 131.204C26.612 131.012 27.068 130.916 27.564 130.916C28.108 130.916 28.584 131.024 28.992 131.24C29.408 131.448 29.732 131.74 29.964 132.116C30.204 132.492 30.324 132.928 30.324 133.424C30.324 133.752 30.256 134.072 30.12 134.384C29.984 134.696 29.784 135.028 29.52 135.38C29.256 135.724 28.912 136.124 28.488 136.58L26.28 138.98H30.516V140H24.648ZM34.7116 140.144C34.2396 140.144 33.7996 140.06 33.3916 139.892C32.9836 139.724 32.6316 139.488 32.3356 139.184C32.0396 138.872 31.8196 138.504 31.6756 138.08L32.6716 137.672C32.8396 138.12 33.1036 138.468 33.4636 138.716C33.8236 138.964 34.2396 139.088 34.7116 139.088C35.0796 139.088 35.4076 139.016 35.6956 138.872C35.9836 138.728 36.2076 138.52 36.3676 138.248C36.5356 137.976 36.6196 137.648 36.6196 137.264C36.6196 136.872 36.5356 136.544 36.3676 136.28C36.2076 136.008 35.9836 135.8 35.6956 135.656C35.4076 135.512 35.0756 135.44 34.6996 135.44C34.5796 135.44 34.4476 135.448 34.3036 135.464C34.1676 135.48 34.0516 135.504 33.9556 135.536L33.7036 134.996L36.0916 132.08H32.1316V131.06H37.4236V132.044L35.1436 134.852L35.0716 134.54C35.6076 134.556 36.0796 134.68 36.4876 134.912C36.8956 135.144 37.2156 135.46 37.4476 135.86C37.6796 136.252 37.7956 136.712 37.7956 137.24C37.7956 137.784 37.6636 138.276 37.3996 138.716C37.1356 139.156 36.7716 139.504 36.3076 139.76C35.8436 140.016 35.3116 140.144 34.7116 140.144ZM39.5638 141.668V141.128C39.8118 141.064 39.9998 140.94 40.1278 140.756C40.2558 140.572 40.3278 140.32 40.3438 140H39.8038V138.56H40.9678V139.58C40.9678 140.156 40.8478 140.62 40.6078 140.972C40.3758 141.324 40.0278 141.556 39.5638 141.668ZM45.6938 140.144C45.2298 140.144 44.7938 140.064 44.3858 139.904C43.9778 139.736 43.6218 139.5 43.3178 139.196C43.0218 138.884 42.8058 138.52 42.6698 138.104L43.6298 137.696C43.7978 138.136 44.0698 138.48 44.4458 138.728C44.8298 138.968 45.2458 139.088 45.6938 139.088C46.0618 139.088 46.3858 139.008 46.6658 138.848C46.9538 138.68 47.1778 138.452 47.3378 138.164C47.4978 137.868 47.5778 137.54 47.5778 137.18C47.5778 136.804 47.4938 136.472 47.3258 136.184C47.1658 135.896 46.9458 135.672 46.6658 135.512C46.3858 135.344 46.0658 135.26 45.7058 135.26C45.3378 135.26 45.0018 135.344 44.6978 135.512C44.3938 135.68 44.1738 135.892 44.0378 136.148L43.0898 135.944L43.7738 131.06H48.4058V132.08H44.2178L44.6738 131.624L44.1458 135.416L43.7378 135.176C44.0018 134.84 44.3098 134.6 44.6618 134.456C45.0218 134.304 45.4098 134.228 45.8258 134.228C46.4098 134.228 46.9218 134.36 47.3618 134.624C47.8018 134.888 48.1458 135.24 48.3938 135.68C48.6418 136.12 48.7658 136.62 48.7658 137.18C48.7658 137.74 48.6298 138.244 48.3578 138.692C48.0938 139.14 47.7298 139.496 47.2658 139.76C46.8098 140.016 46.2858 140.144 45.6938 140.144ZM51.2043 140L58.5003 131.06H59.8323L52.5363 140H51.2043ZM52.5483 135.596C52.1083 135.596 51.7123 135.492 51.3603 135.284C51.0083 135.068 50.7243 134.784 50.5083 134.432C50.3003 134.08 50.1963 133.688 50.1963 133.256C50.1963 132.824 50.3003 132.432 50.5083 132.08C50.7243 131.72 51.0083 131.436 51.3603 131.228C51.7123 131.02 52.1083 130.916 52.5483 130.916C52.9803 130.916 53.3723 131.02 53.7243 131.228C54.0763 131.436 54.3563 131.72 54.5643 132.08C54.7723 132.432 54.8763 132.824 54.8763 133.256C54.8763 133.688 54.7723 134.08 54.5643 134.432C54.3563 134.784 54.0763 135.068 53.7243 135.284C53.3723 135.492 52.9803 135.596 52.5483 135.596ZM52.5363 134.612C52.8083 134.612 53.0403 134.548 53.2323 134.42C53.4243 134.292 53.5763 134.124 53.6883 133.916C53.8003 133.708 53.8563 133.488 53.8563 133.256C53.8563 133.016 53.8003 132.796 53.6883 132.596C53.5763 132.388 53.4243 132.22 53.2323 132.092C53.0403 131.956 52.8083 131.888 52.5363 131.888C52.2803 131.888 52.0523 131.956 51.8523 132.092C51.6523 132.22 51.4963 132.388 51.3843 132.596C51.2723 132.804 51.2163 133.024 51.2163 133.256C51.2163 133.48 51.2723 133.7 51.3843 133.916C51.4963 134.124 51.6523 134.292 51.8523 134.42C52.0523 134.548 52.2803 134.612 52.5363 134.612ZM58.4163 140.144C57.9763 140.144 57.5803 140.04 57.2283 139.832C56.8763 139.616 56.5923 139.332 56.3763 138.98C56.1683 138.628 56.0643 138.236 56.0643 137.804C56.0643 137.372 56.1683 136.98 56.3763 136.628C56.5923 136.268 56.8763 135.984 57.2283 135.776C57.5803 135.568 57.9763 135.464 58.4163 135.464C58.8483 135.464 59.2403 135.568 59.5923 135.776C59.9443 135.984 60.2243 136.268 60.4323 136.628C60.6403 136.98 60.7443 137.372 60.7443 137.804C60.7443 138.236 60.6403 138.628 60.4323 138.98C60.2243 139.332 59.9443 139.616 59.5923 139.832C59.2403 140.04 58.8483 140.144 58.4163 140.144ZM58.4163 139.16C58.6803 139.16 58.9083 139.096 59.1003 138.968C59.3003 138.84 59.4523 138.672 59.5563 138.464C59.6683 138.256 59.7243 138.036 59.7243 137.804C59.7243 137.564 59.6683 137.344 59.5563 137.144C59.4523 136.936 59.3003 136.768 59.1003 136.64C58.9083 136.504 58.6803 136.436 58.4163 136.436C58.1603 136.436 57.9283 136.504 57.7203 136.64C57.5203 136.768 57.3643 136.936 57.2523 137.144C57.1403 137.352 57.0843 137.572 57.0843 137.804C57.0843 138.028 57.1403 138.248 57.2523 138.464C57.3643 138.672 57.5203 138.84 57.7203 138.968C57.9283 139.096 58.1603 139.16 58.4163 139.16Z" fill="#ED544E"/>
<path d="M87.3182 132.864L84.4943 140.5H83.3011L80.4773 132.864H81.75L83.858 138.949H83.9375L86.0455 132.864H87.3182ZM94.2759 134.574L93.2219 134.872C93.1557 134.696 93.0579 134.526 92.9286 134.36C92.8027 134.191 92.6303 134.052 92.4116 133.942C92.1928 133.833 91.9128 133.778 91.5714 133.778C91.104 133.778 90.7146 133.886 90.4031 134.102C90.0948 134.314 89.9407 134.584 89.9407 134.912C89.9407 135.204 90.0468 135.434 90.2589 135.603C90.471 135.772 90.8024 135.913 91.2532 136.026L92.3867 136.304C93.0695 136.47 93.5782 136.723 93.913 137.065C94.2478 137.403 94.4151 137.839 94.4151 138.372C94.4151 138.81 94.2892 139.201 94.0373 139.545C93.7887 139.89 93.4407 140.162 92.9933 140.361C92.5458 140.56 92.0254 140.659 91.4322 140.659C90.6533 140.659 90.0086 140.49 89.4982 140.152C88.9878 139.814 88.6647 139.32 88.5288 138.67L89.6424 138.392C89.7485 138.803 89.949 139.111 90.244 139.317C90.5423 139.522 90.9317 139.625 91.4123 139.625C91.9592 139.625 92.3933 139.509 92.7148 139.277C93.0397 139.042 93.2021 138.76 93.2021 138.432C93.2021 138.167 93.1093 137.945 92.9237 137.766C92.738 137.583 92.453 137.447 92.0685 137.358L90.7958 137.06C90.0965 136.894 89.5827 136.637 89.2546 136.289C88.9298 135.938 88.7674 135.499 88.7674 134.972C88.7674 134.541 88.8884 134.16 89.1303 133.828C89.3756 133.497 89.7087 133.237 90.1296 133.048C90.5539 132.859 91.0344 132.764 91.5714 132.764C92.3271 132.764 92.9203 132.93 93.3512 133.261C93.7854 133.593 94.0936 134.03 94.2759 134.574ZM97.0364 140.58C96.7911 140.58 96.5807 140.492 96.405 140.316C96.2293 140.14 96.1415 139.93 96.1415 139.685C96.1415 139.439 96.2293 139.229 96.405 139.053C96.5807 138.878 96.7911 138.79 97.0364 138.79C97.2817 138.79 97.4921 138.878 97.6678 139.053C97.8435 139.229 97.9313 139.439 97.9313 139.685C97.9313 139.847 97.8899 139.996 97.807 140.132C97.7275 140.268 97.6197 140.377 97.4838 140.46C97.3513 140.54 97.2021 140.58 97.0364 140.58ZM103.974 143.364V132.864H105.108V134.077H105.247C105.333 133.944 105.452 133.775 105.605 133.57C105.761 133.361 105.983 133.175 106.271 133.013C106.563 132.847 106.957 132.764 107.454 132.764C108.097 132.764 108.664 132.925 109.155 133.246C109.645 133.568 110.028 134.024 110.303 134.614C110.578 135.204 110.716 135.9 110.716 136.702C110.716 137.51 110.578 138.211 110.303 138.805C110.028 139.395 109.647 139.852 109.16 140.177C108.672 140.498 108.111 140.659 107.474 140.659C106.984 140.659 106.591 140.578 106.296 140.415C106.001 140.25 105.774 140.062 105.615 139.854C105.456 139.642 105.333 139.466 105.247 139.327H105.148V143.364H103.974ZM105.128 136.682C105.128 137.259 105.212 137.767 105.381 138.208C105.55 138.646 105.797 138.989 106.122 139.237C106.447 139.482 106.845 139.605 107.315 139.605C107.806 139.605 108.215 139.476 108.543 139.217C108.875 138.955 109.123 138.604 109.289 138.163C109.458 137.719 109.542 137.225 109.542 136.682C109.542 136.145 109.46 135.661 109.294 135.23C109.131 134.796 108.885 134.453 108.553 134.201C108.225 133.946 107.812 133.818 107.315 133.818C106.838 133.818 106.437 133.939 106.112 134.181C105.787 134.42 105.542 134.754 105.376 135.185C105.211 135.613 105.128 136.112 105.128 136.682ZM112.506 140.5V132.864H113.639V134.017H113.719C113.858 133.639 114.11 133.333 114.474 133.097C114.839 132.862 115.25 132.744 115.707 132.744C115.793 132.744 115.901 132.746 116.03 132.749C116.16 132.753 116.257 132.758 116.324 132.764V133.957C116.284 133.947 116.193 133.933 116.05 133.913C115.911 133.889 115.764 133.878 115.608 133.878C115.237 133.878 114.905 133.956 114.613 134.112C114.325 134.264 114.096 134.476 113.927 134.748C113.762 135.016 113.679 135.323 113.679 135.668V140.5H112.506ZM120.684 140.659C119.948 140.659 119.313 140.497 118.78 140.172C118.249 139.844 117.84 139.386 117.552 138.8C117.267 138.21 117.124 137.524 117.124 136.741C117.124 135.959 117.267 135.27 117.552 134.673C117.84 134.073 118.241 133.606 118.755 133.271C119.272 132.933 119.875 132.764 120.564 132.764C120.962 132.764 121.355 132.83 121.743 132.963C122.131 133.096 122.483 133.311 122.802 133.609C123.12 133.904 123.373 134.295 123.562 134.783C123.751 135.27 123.846 135.87 123.846 136.582V137.08H117.959V136.065H122.653C122.653 135.634 122.566 135.25 122.394 134.912C122.225 134.574 121.983 134.307 121.668 134.112C121.357 133.916 120.989 133.818 120.564 133.818C120.097 133.818 119.693 133.934 119.351 134.166C119.013 134.395 118.753 134.693 118.571 135.061C118.389 135.429 118.297 135.823 118.297 136.244V136.92C118.297 137.497 118.397 137.986 118.596 138.387C118.798 138.785 119.078 139.088 119.436 139.297C119.794 139.502 120.21 139.605 120.684 139.605C120.992 139.605 121.27 139.562 121.519 139.476C121.771 139.386 121.988 139.254 122.17 139.078C122.353 138.899 122.493 138.677 122.593 138.412L123.726 138.73C123.607 139.115 123.407 139.453 123.125 139.744C122.843 140.033 122.495 140.258 122.081 140.42C121.666 140.58 121.201 140.659 120.684 140.659ZM131.642 132.864L128.819 140.5H127.625L124.801 132.864H126.074L128.182 138.949H128.262L130.37 132.864H131.642ZM133.191 140.5V132.864H134.364V140.5H133.191ZM133.788 131.591C133.559 131.591 133.362 131.513 133.196 131.357C133.034 131.201 132.952 131.014 132.952 130.795C132.952 130.577 133.034 130.389 133.196 130.234C133.362 130.078 133.559 130 133.788 130C134.016 130 134.212 130.078 134.374 130.234C134.54 130.389 134.623 130.577 134.623 130.795C134.623 131.014 134.54 131.201 134.374 131.357C134.212 131.513 134.016 131.591 133.788 131.591ZM139.616 140.659C138.926 140.659 138.321 140.495 137.801 140.167C137.284 139.839 136.88 139.38 136.588 138.79C136.3 138.2 136.155 137.51 136.155 136.722C136.155 135.926 136.3 135.232 136.588 134.638C136.88 134.045 137.284 133.585 137.801 133.256C138.321 132.928 138.926 132.764 139.616 132.764C140.305 132.764 140.908 132.928 141.425 133.256C141.946 133.585 142.35 134.045 142.638 134.638C142.93 135.232 143.076 135.926 143.076 136.722C143.076 137.51 142.93 138.2 142.638 138.79C142.35 139.38 141.946 139.839 141.425 140.167C140.908 140.495 140.305 140.659 139.616 140.659ZM139.616 139.605C140.139 139.605 140.57 139.471 140.908 139.202C141.246 138.934 141.497 138.581 141.659 138.143C141.821 137.706 141.903 137.232 141.903 136.722C141.903 136.211 141.821 135.736 141.659 135.295C141.497 134.854 141.246 134.498 140.908 134.226C140.57 133.954 140.139 133.818 139.616 133.818C139.092 133.818 138.661 133.954 138.323 134.226C137.985 134.498 137.735 134.854 137.572 135.295C137.41 135.736 137.329 136.211 137.329 136.722C137.329 137.232 137.41 137.706 137.572 138.143C137.735 138.581 137.985 138.934 138.323 139.202C138.661 139.471 139.092 139.605 139.616 139.605ZM149.679 137.378V132.864H150.853V140.5H149.679V139.207H149.6C149.421 139.595 149.142 139.925 148.765 140.197C148.387 140.465 147.909 140.599 147.333 140.599C146.855 140.599 146.431 140.495 146.06 140.286C145.689 140.074 145.397 139.756 145.185 139.332C144.973 138.904 144.867 138.366 144.867 137.716V132.864H146.04V137.636C146.04 138.193 146.196 138.637 146.507 138.969C146.822 139.3 147.223 139.466 147.711 139.466C148.002 139.466 148.299 139.391 148.6 139.242C148.905 139.093 149.161 138.864 149.366 138.556C149.575 138.248 149.679 137.855 149.679 137.378ZM158.411 134.574L157.357 134.872C157.29 134.696 157.193 134.526 157.063 134.36C156.937 134.191 156.765 134.052 156.546 133.942C156.328 133.833 156.048 133.778 155.706 133.778C155.239 133.778 154.849 133.886 154.538 134.102C154.23 134.314 154.075 134.584 154.075 134.912C154.075 135.204 154.182 135.434 154.394 135.603C154.606 135.772 154.937 135.913 155.388 136.026L156.521 136.304C157.204 136.47 157.713 136.723 158.048 137.065C158.383 137.403 158.55 137.839 158.55 138.372C158.55 138.81 158.424 139.201 158.172 139.545C157.923 139.89 157.575 140.162 157.128 140.361C156.681 140.56 156.16 140.659 155.567 140.659C154.788 140.659 154.143 140.49 153.633 140.152C153.123 139.814 152.799 139.32 152.664 138.67L153.777 138.392C153.883 138.803 154.084 139.111 154.379 139.317C154.677 139.522 155.066 139.625 155.547 139.625C156.094 139.625 156.528 139.509 156.85 139.277C157.174 139.042 157.337 138.76 157.337 138.432C157.337 138.167 157.244 137.945 157.058 137.766C156.873 137.583 156.588 137.447 156.203 137.358L154.931 137.06C154.231 136.894 153.718 136.637 153.389 136.289C153.065 135.938 152.902 135.499 152.902 134.972C152.902 134.541 153.023 134.16 153.265 133.828C153.51 133.497 153.843 133.237 154.264 133.048C154.689 132.859 155.169 132.764 155.706 132.764C156.462 132.764 157.055 132.93 157.486 133.261C157.92 133.593 158.228 134.03 158.411 134.574ZM164.254 140.5V132.864H165.387V134.057H165.487C165.646 133.649 165.902 133.333 166.257 133.107C166.612 132.879 167.038 132.764 167.535 132.764C168.039 132.764 168.458 132.879 168.793 133.107C169.131 133.333 169.394 133.649 169.583 134.057H169.663C169.858 133.662 170.152 133.349 170.543 133.117C170.934 132.882 171.403 132.764 171.95 132.764C172.632 132.764 173.191 132.978 173.625 133.406C174.059 133.83 174.276 134.491 174.276 135.389V140.5H173.103V135.389C173.103 134.826 172.949 134.423 172.641 134.181C172.332 133.939 171.969 133.818 171.552 133.818C171.015 133.818 170.599 133.981 170.304 134.305C170.009 134.627 169.862 135.035 169.862 135.528V140.5H168.668V135.27C168.668 134.836 168.527 134.486 168.246 134.221C167.964 133.952 167.601 133.818 167.157 133.818C166.852 133.818 166.567 133.899 166.302 134.062C166.04 134.224 165.828 134.45 165.665 134.738C165.506 135.023 165.427 135.353 165.427 135.727V140.5H164.254ZM179.524 140.659C178.834 140.659 178.23 140.495 177.709 140.167C177.192 139.839 176.788 139.38 176.496 138.79C176.208 138.2 176.064 137.51 176.064 136.722C176.064 135.926 176.208 135.232 176.496 134.638C176.788 134.045 177.192 133.585 177.709 133.256C178.23 132.928 178.834 132.764 179.524 132.764C180.213 132.764 180.816 132.928 181.333 133.256C181.854 133.585 182.258 134.045 182.547 134.638C182.838 135.232 182.984 135.926 182.984 136.722C182.984 137.51 182.838 138.2 182.547 138.79C182.258 139.38 181.854 139.839 181.333 140.167C180.816 140.495 180.213 140.659 179.524 140.659ZM179.524 139.605C180.047 139.605 180.478 139.471 180.816 139.202C181.154 138.934 181.405 138.581 181.567 138.143C181.73 137.706 181.811 137.232 181.811 136.722C181.811 136.211 181.73 135.736 181.567 135.295C181.405 134.854 181.154 134.498 180.816 134.226C180.478 133.954 180.047 133.818 179.524 133.818C179 133.818 178.569 133.954 178.231 134.226C177.893 134.498 177.643 134.854 177.48 135.295C177.318 135.736 177.237 136.211 177.237 136.722C177.237 137.232 177.318 137.706 177.48 138.143C177.643 138.581 177.893 138.934 178.231 139.202C178.569 139.471 179 139.605 179.524 139.605ZM185.948 135.906V140.5H184.775V132.864H185.909V134.057H186.008C186.187 133.669 186.459 133.357 186.823 133.122C187.188 132.884 187.659 132.764 188.235 132.764C188.752 132.764 189.205 132.87 189.593 133.082C189.98 133.291 190.282 133.609 190.497 134.037C190.713 134.461 190.82 134.998 190.82 135.648V140.5H189.647V135.727C189.647 135.127 189.491 134.66 189.18 134.325C188.868 133.987 188.441 133.818 187.897 133.818C187.523 133.818 187.188 133.899 186.893 134.062C186.601 134.224 186.371 134.461 186.202 134.773C186.033 135.084 185.948 135.462 185.948 135.906ZM196.286 132.864V133.858H192.328V132.864H196.286ZM193.482 131.034H194.655V138.312C194.655 138.644 194.703 138.893 194.799 139.058C194.898 139.221 195.024 139.33 195.177 139.386C195.333 139.439 195.497 139.466 195.669 139.466C195.798 139.466 195.904 139.459 195.987 139.446C196.07 139.429 196.136 139.416 196.186 139.406L196.425 140.46C196.345 140.49 196.234 140.52 196.092 140.55C195.949 140.583 195.768 140.599 195.55 140.599C195.218 140.599 194.893 140.528 194.575 140.386C194.26 140.243 193.999 140.026 193.79 139.734C193.584 139.443 193.482 139.075 193.482 138.631V131.034ZM199.388 135.906V140.5H198.214V130.318H199.388V134.057H199.487C199.666 133.662 199.935 133.349 200.293 133.117C200.654 132.882 201.134 132.764 201.734 132.764C202.255 132.764 202.71 132.869 203.102 133.077C203.493 133.283 203.796 133.599 204.011 134.027C204.23 134.451 204.339 134.991 204.339 135.648V140.5H203.166V135.727C203.166 135.121 203.009 134.652 202.694 134.32C202.382 133.986 201.95 133.818 201.396 133.818C201.012 133.818 200.667 133.899 200.362 134.062C200.061 134.224 199.822 134.461 199.646 134.773C199.474 135.084 199.388 135.462 199.388 135.906Z" fill="#606060"/>
<defs>
<linearGradient id="paint0_linear_2133_4708" x1="155" y1="36" x2="155" y2="4" gradientUnits="userSpaceOnUse">
<stop stop-color="#ED544E" stop-opacity="0"/>
<stop offset="0.809892" stop-color="#ED544E"/>
</linearGradient>
</defs>
</svg>
