<svg width="208" height="40" viewBox="0 0 208 40" fill="none" xmlns="http://www.w3.org/2000/svg">
<circle cx="20" cy="20" r="19.6429" stroke="#E6E6E6" stroke-width="0.714286"/>
<path fill-rule="evenodd" clip-rule="evenodd" d="M15.5782 10.9119C12.8091 11.5544 10.75 14.0334 10.75 17C10.75 17.4142 10.4142 17.75 10 17.75C9.58579 17.75 9.25 17.4142 9.25 17C9.25 12.7158 12.7158 9.25 17 9.25C17.2702 9.25 17.5195 9.39534 17.6526 9.63047C17.7858 9.8656 17.7821 10.1542 17.6431 10.3859L16.5931 12.1359C16.38 12.4911 15.9193 12.6062 15.5641 12.3931C15.209 12.18 15.0938 11.7193 15.3069 11.3641L15.5782 10.9119ZM30 22.25C30.4142 22.25 30.75 22.5858 30.75 23C30.75 27.2842 27.2842 30.75 23 30.75C22.7298 30.75 22.4805 30.6047 22.3474 30.3695C22.2142 30.1344 22.2179 29.8458 22.3569 29.6141L23.4069 27.8641C23.62 27.5089 24.0807 27.3938 24.4359 27.6069C24.791 27.82 24.9062 28.2807 24.6931 28.6359L24.4218 29.0881C27.1909 28.4456 29.25 25.9666 29.25 23C29.25 22.5858 29.5858 22.25 30 22.25Z" fill="#34CAA5"/>
<path d="M24.4004 16.21L20.6404 14.18C20.2404 13.97 19.7704 13.97 19.3704 14.18L15.6104 16.21C15.3404 16.36 15.1704 16.65 15.1704 16.98C15.1704 17.31 15.3404 17.6 15.6104 17.75L19.3704 19.78C19.5704 19.89 19.7904 19.94 20.0104 19.94C20.2304 19.94 20.4504 19.89 20.6504 19.78L24.4104 17.75C24.6804 17.6 24.8504 17.31 24.8504 16.98C24.8404 16.65 24.6704 16.36 24.4004 16.21Z" fill="#34CAA5"/>
<path opacity="0.4" d="M18.7402 20.4699L15.2402 18.7199C14.9702 18.5899 14.6602 18.5999 14.4002 18.7599C14.1402 18.9199 13.9902 19.1899 13.9902 19.4899V22.7999C13.9902 23.3699 14.3103 23.8899 14.8203 24.1399L18.3203 25.8899C18.4403 25.9499 18.5702 25.9799 18.7102 25.9799C18.8702 25.9799 19.0202 25.9399 19.1602 25.8499C19.4202 25.6899 19.5703 25.4199 19.5703 25.1199V21.8099C19.5703 21.2399 19.2602 20.7299 18.7402 20.4699Z" fill="#34CAA5"/>
<path opacity="0.4" d="M25.5904 18.7599C25.3304 18.5999 25.0204 18.5899 24.7504 18.7199L21.2504 20.4699C20.7404 20.7299 20.4204 21.2399 20.4204 21.8099V25.1199C20.4204 25.4199 20.5704 25.6899 20.8304 25.8499C20.9704 25.9399 21.1204 25.9799 21.2804 25.9799C21.4104 25.9799 21.5404 25.9499 21.6704 25.8899L25.1704 24.1399C25.6804 23.8799 26.0004 23.3699 26.0004 22.7999V19.4899C26.0004 19.1899 25.8504 18.9199 25.5904 18.7599Z" fill="#34CAA5"/>
<path d="M105.006 11.4667H103V36L207 36V14.4536L203.991 21.9203L202.796 24.9069H201.394L198.592 21.9203L196.63 24.907L190.744 24.9072L187.661 21.9204L185.979 17.4396L183.532 19.6803L181.325 21.9203L180.636 25.3333L179.235 24.9069H177.514L174.305 14.4536L173.302 17.4403L171.697 14.4536L170.494 19.6803L167.284 10.7203L165.479 14.4536H162.069L158.459 6.98696L156.252 10.7203L153.347 8.48L149.806 14.4533L147.53 4L145.882 14.4533L134.893 18.9333L133.489 15.9466H132.085L128.875 11.4667H125.666L124.462 15.9466L119.648 6.98666L117.643 18.9333L116.64 14.4533H114.433L112.427 4L110.422 12.96L109.419 8.48H106.811L105.006 11.4667Z" fill="url(#paint0_linear_2133_4683)" fill-opacity="0.16"/>
<path d="M103 11.4667H105.006L106.811 8.48004H109.419L110.422 12.96L112.427 4.00004L114.433 14.4534H116.64L117.643 18.9333L119.648 6.9867L124.462 15.9467L125.666 11.4667H128.875L132.085 15.9467H133.489L134.893 18.9333L145.882 14.4534L147.53 4.00004L149.806 14.4534L153.347 8.48004L156.252 10.7203L158.459 6.987L162.069 14.4536H165.479L167.284 10.7203L170.494 19.6803L171.697 14.4536L173.302 17.4403L174.305 14.4536L177.514 24.907H179.235L180.636 25.3334L181.325 21.9203L183.532 19.6803L185.979 17.4396L187.661 21.9204L190.744 24.9073L196.63 24.907L198.592 21.9203L201.394 24.907H202.796L203.991 21.9203L207 14.4536" stroke="#ED544E" stroke-linecap="round"/>
<defs>
<linearGradient id="paint0_linear_2133_4683" x1="155" y1="36" x2="155" y2="4" gradientUnits="userSpaceOnUse">
<stop stop-color="#ED544E" stop-opacity="0"/>
<stop offset="0.809892" stop-color="#ED544E"/>
</linearGradient>
</defs>
</svg>
